<svg xmlns="http://www.w3.org/2000/svg" xmlns:xlink="http://www.w3.org/1999/xlink" width="16" height="16" viewBox="270 130 490 490">
  <defs>
    <style>
      .cls-1, .cls-2 { fill: none; stroke: #8c52ff; stroke-miterlimit: 10; stroke-width: 36px; }
      .cls-2 { stroke-linecap: round; }
      .cls-3 { fill: #8c52ff; }
    </style>
  </defs>
  <path class="cls-1" d="M644.86,410.55c10.67,0,20.69,2.92,29.42,8.02.7.41,1.61.1,1.89-.66,7.58-20.69,11.8-43.01,11.95-66.3.71-109.29-90.01-199.31-199.29-197.78-107.24,1.49-193.71,88.89-193.71,196.48,0,24.04,4.32,47.08,12.22,68.37,9.08,24.48-29.67,91.41-12.22,110.17,17.45,18.76,91.09-10.65,114.67.16,24.91,11.43,52.63,17.8,81.84,17.8,38.38,0,74.19-11.01,104.44-30.03.64-.4.79-1.26.35-1.87-7.94-10.94-12.66-24.64-12.66-39.51,0-35.82,27.36-64.85,61.11-64.85Z"/>
  <path class="cls-2" d="M584.14,466.28c-2.21,11.43-1.14,23.45,3.8,34.69,13.57,30.9,51.16,44.28,83.95,29.88,13.18-5.79,23.57-15.18,30.41-26.35"/>
  <path class="cls-3" d="M594.85,422.34h0c-6.06,0-11.66-2.05-16.15-5.5-6.34-4.87-10.44-12.53-10.44-21.09v-36.36c0-14.63,11.97-26.59,26.59-26.59h0c14.63,0,26.59,11.97,26.59,26.59v36.36c0,14.63-11.97,26.59-26.59,26.59Z"/>
  <rect class="cls-3" x="455.28" y="337.66" width="53.18" height="89.54" rx="21.16" ry="21.16"/>
  <circle class="cls-3" cx="713.92" cy="454.01" r="19.54"/>
</svg>
